<svg id="Layer_1" data-name="Layer 1" xmlns="http://www.w3.org/2000/svg" viewBox="0 0 127.85 128"><defs><style>.cls-1{fill:#0061af;}.cls-2{fill:none;}</style></defs><title>logo</title><path class="cls-1" d="M82.28,99.42a.4.4,0,0,1,.38.42c-.16,6-1.12,12-1,18.11,0,2.16-.1,4.34,0,6.49a1.51,1.51,0,0,1-1.33,1.81,9.89,9.89,0,0,1-1.23.09c-2.22.3-2.22.31-2.06-2,0-.25.06-.51.07-.76.07-2.6,0-2.48-2.19-1.94-4.06,1-8.28.12-10.15-5.18a35.89,35.89,0,0,1,.59-25.65c1.34-3.43,3.81-5.83,7.6-5.92,4-.1,6.4,1.51,8,5.48a12.23,12.23,0,0,1,.61,2c.9,4,.52,4.57-3.17,4.93-1.06.11-1.5-.06-1.47-1.35a24.77,24.77,0,0,0-.29-4.21c-.2-1.4-.55-2.89-2-3.3S71.94,88.7,71,90c-1.47,1.94-1.69,4.33-2,6.66a29.5,29.5,0,0,0-.11,3.65c-.07,1.33-.22,2.67-.17,4,.14,3.86-.21,7.8,1.55,11.43.55,1.13,1.25,1.92,2.38,2a3,3,0,0,0,2.92-1.78,15.08,15.08,0,0,0,1.37-5.11c.46-3.14.46-3.12-2.36-2.77-.57.08-1.5.23-2.07.34-2.92.57-2.91.24-2.87-3.56l.59-4.84a.56.56,0,0,1,.53-.51Z" transform="translate(0 0)"/><path class="cls-1" d="M61.1,103.19a23.5,23.5,0,0,1-3.88,13.11c-2.57,4-7.22,3.78-10.38.11a20.42,20.42,0,0,1-5.28-12.25c-.25-4.28.06-8.55,1.94-12.34C46,86.67,49.09,84.39,54,85.93c2.15.68,3.41,2.66,4.44,4.64,2,3.87,2.72,7.32,2.71,12.62m-9.76,11.42a.72.72,0,0,0,1.32-.17h0c2.6-7.4,1.92-14.81,0-22.2-.22-.85-.3-2.34-1.17-2.27s-1.17,1.42-1.44,2.42a39.39,39.39,0,0,0-1.39,9.45c-.06,4.47.43,8.88,2.68,12.78" transform="translate(0 0)"/><path class="cls-1" d="M91,91.2c-1,.06-1.9.19-2.84.34-1.67.29-2.07-.24-2.44-2.55-.52-3.25-.52-3.32,2.35-3.13,4.41.28,8.81.57,13.12-.92.37-.13.86-.31,1.18.06s0,1-.15,1.41c-3.66,7.86-5.7,16.34-7.93,24.73-.13.51-.58,1.11,0,1.6s1-.06,1.47-.26c2.15-1,4.23-2.24,6.38-3.27,1.52-.74,1.74-.52,1.49,1.32-.31,2.28-.73,4.55-1,6.83-.14,1.15-.64,1.46-1.65,1.41-1.71-.07-3.43,0-5.14,0a43.34,43.34,0,0,0-8.43.61c-.86.15-1.7.22-1.39-1.31,1.65-8.32,3.36-16.61,7.3-24.1.44-.85,1-1.63,1.5-2.43a.35.35,0,0,0-.28-.54Z" transform="translate(0 0)"/><path class="cls-1" d="M24.54,87.71c0-1.22.29-1.7,1.49-1.64C31.44,86.31,38.34,91,39,97.8a40.52,40.52,0,0,1-1,14.81c-1.45,5.16-4.62,7.55-9.62,7.39-3.88-.12-3.88-.12-3.87-4.4V102.91Zm4.24,6.44a23.79,23.79,0,0,0-.27,4.92q.31,7,.66,14v0a.89.89,0,0,0,1.36.74A8.75,8.75,0,0,0,33.19,111c2.07-3.31,1.67-7,1.36-10.57a13.67,13.67,0,0,0-2-5.86,2.71,2.71,0,0,0-2.71-1.43,1.16,1.16,0,0,0-1,1" transform="translate(0 0)"/><path class="cls-1" d="M11.52,94.36q0,13,0,26c0,.94.3,2.22-1.13,2.25-1.22,0-1.39-1.12-1.49-2.12a23.6,23.6,0,0,1-.11-2.52c0-16.86,0-47,0-63.9V52.66A1.18,1.18,0,0,1,10,51.33c.61,0,1,.29,1.22,1a11.6,11.6,0,0,1,.35,2.94c0,8.58,0,30.49,0,39.07" transform="translate(0 0)"/><path class="cls-1" d="M115.89,53.37c0-.93-.16-2,1.13-2s1,1.13,1.17,1.84a6.47,6.47,0,0,1,.16,1.82v65.05c0,.46,0,.92,0,1.38,0,.69-.37,1.13-1.07,1.16s-.86-.25-1.13-.81a5.92,5.92,0,0,1-.36-2.69q0-13,0-26Z" transform="translate(0 0)"/><path class="cls-1" d="M111,57.61a9.49,9.49,0,0,1,0-1.6c.18-1,.23-2.35,1.58-2.28s1.09,1.33,1.09,2.29c0,16.6,0,46.55,0,63.16a14.17,14.17,0,0,1,0,2.06c-.14,1-.53,1.87-1.64,1.66-1-.18-.9-1-.9-1.92.06-8.49,0-17,0-25.46Z" transform="translate(0 0)"/><path class="cls-1" d="M16.16,96.17c0,8.65,0,17.29,0,25.94,0,.71.34,1.83-.91,1.94s-1.56-.84-1.73-1.86a7,7,0,0,1,0-1.37c0-3.35.13-6.69.14-10q0-17.07.05-34.13c0-2.65-.07-18.63-.16-21.28,0-.89.13-1.56,1-1.68s1.27.52,1.35,1.39Z" transform="translate(0 0)"/><path class="cls-1" d="M4.2,95.26c0-8.42,0-30.17,0-38.59a6.44,6.44,0,0,1,.18-1.81c.19-.66.56-1.27,1.37-1.15s1.06.68,1.06,1.46v1.38c0,16.45,0,46.25,0,62.71,0,1.44.42,3.67-1.53,3.62s-1-2.29-1-3.53c-.09-8,0-16.06,0-24.09" transform="translate(0 0)"/><path class="cls-1" d="M122.91,96v26.4c0,.72.3,1.57-.84,1.7s-1.39-.68-1.45-1.54c-.09-1.52-.05-3.06-.05-4.59,0-16.14,0-45.62,0-61.77,0-.93-.54-2.46,1.11-2.4,1.4,0,1.22,1.46,1.22,2.46,0,8.8,0,30.94,0,39.74Z" transform="translate(0 0)"/><path class="cls-1" d="M116.2,46.19a7.19,7.19,0,0,1,3.93.09,23.75,23.75,0,0,1,7.16,4c.74.57.64,1.29.32,2-.45,1.07-1.28.57-1.82.32a16.5,16.5,0,0,1-3-1.81c-3-2.22-6.15-2.28-9.48-.34a20.33,20.33,0,0,1-4.53,2,1.19,1.19,0,0,1-1.67-.81c-.37-1.07.1-1.81,1.16-2.29a49.93,49.93,0,0,1,7.9-3.26" transform="translate(0 0)"/><path class="cls-1" d="M20.74,51.62c0,1.42-.73,1.72-1.69,1.25a15.62,15.62,0,0,1-2.74-1.77c-3.3-2.58-6.69-2.36-10.19-.53-1.22.64-2.48,1.17-3.72,1.74-.83.38-1.74.69-2.23-.41a1.62,1.62,0,0,1,.91-2.24c3-1.49,6-3.12,9.33-3.74,1.85-.34,3.51.5,5.11,1.27,1.42.68,2.72,1.67,4.08,2.5a2,2,0,0,1,1.14,1.93" transform="translate(0 0)"/><path class="cls-1" d="M10.47,124.88c2.64,0,5.28,0,7.92,0,1.21,0,2.14.25,2.17,1.81s-1.09,1.29-2,1.29c-5.13,0-10.27,0-15.41,0a5.65,5.65,0,0,1-1.69-.17,1.51,1.51,0,0,1-1.07-1.74c.08-1,.69-1.15,1.49-1.15,2.86,0,5.71,0,8.56,0v-.05" transform="translate(0 0)"/><path class="cls-1" d="M117.15,124.93c2.72,0,5.44,0,8.15,0,1.22,0,2.2.29,2.16,1.84s-1.25,1.19-2.09,1.2c-5.29,0-10.58,0-15.87,0-1.27,0-2.15-.41-2.12-1.89s1.13-1.2,2.05-1.19c2.58,0,5.15,0,7.72,0" transform="translate(0 0)"/><path class="cls-1" d="M69.45,58.72c0-.62-.08-1.24-.14-1.86C69.05,54,70.9,53.63,73,53.48a45.78,45.78,0,0,1,6,.09c.71,0,2-.82,2,.85a2.38,2.38,0,0,1-1.67,2.31c-1.61.74-3.27.5-4.88.81-2,.41-1.66,1.66-1.67,3.09s.18,2.77,1.91,2.52c2.33-.34,2.44,1.23,2.52,3.05.1,2.41-1.47,2-2.72,1.88-1.72-.19-2.14.66-2,2.3s.1,3.39.41,5c.37,2-.76,2.3-2,2.49-1.71.25-1.64-1.07-1.58-2.34.14-2.84.25-5.67.37-8.51,0-.8,0-1.61,0-2.41Z" transform="translate(0 0)"/><path class="cls-1" d="M58.43,13.46c-.1-1.57.17-2.21,1.44-1.66.44.19.91.25,1.36.4,4,1.35,4,1.34,3.34,6.62a152.05,152.05,0,0,0-1,16.68c0,1.79-.16,4.33,1.5,4.63,1.49.27,2.16-2,2.65-3.76a29.39,29.39,0,0,0,.51-10A102.86,102.86,0,0,0,66.77,14c-.21-1.09-.09-1.56.82-1.68,1.45-.19,2.89-.59,4.34-.71,1-.08,1.87-.15,1.63,2A162.42,162.42,0,0,0,72.4,33.71a22.44,22.44,0,0,1-.58,4.75c-.95,4.78-3.35,6.81-7.09,6.1s-5.92-3.83-5.92-8.41c0-1.83.06-3.66.07-5.49s0-3.68,0-5.52Z" transform="translate(0 0)"/><path class="cls-1" d="M53.7,54.8c.17,2.05-1,3.84-2.68,4s-3.13-1.39-3.31-3.45,1-3.84,2.68-4,3.13,1.4,3.31,3.45" transform="translate(0 0)"/><path class="cls-1" d="M47,58.17c.89,1.61.58,3.53-.72,4.3s-3.06.09-4-1.51-.58-3.53.71-4.3,3.07-.09,4,1.51" transform="translate(0 0)"/><path class="cls-1" d="M55.2,54.8c-.18,2.05,1,3.84,2.67,4S61,57.4,61.18,55.34s-1-3.84-2.67-4-3.14,1.4-3.31,3.45" transform="translate(0 0)"/><path class="cls-1" d="M61.86,58.17c-.9,1.61-.58,3.53.71,4.3s3.07.09,4-1.51.58-3.53-.71-4.3-3.06-.09-4,1.51" transform="translate(0 0)"/><path class="cls-1" d="M62.65.34,2.76,39.4a1.74,1.74,0,0,0,1,3.2h119a2.09,2.09,0,0,0,1.16-3.85L65,.34a2.14,2.14,0,0,0-2.33,0m1.79,2.09L122.62,40a.41.41,0,0,1-.23.76H5a.38.38,0,0,1-.21-.7L63,2.43a1.31,1.31,0,0,1,1.42,0" transform="translate(0 0)"/><path class="cls-1" d="M52.17,11.81a7.46,7.46,0,0,1,.7.56,9,9,0,0,1,1.92,2.46c3,5.66,2.75,13.47-.78,19.64-2.44,4.26-6.54,4.9-9.94,1.38a16.72,16.72,0,0,1-4.72-9.67,14.88,14.88,0,0,1,.2-4.89l.93-4.7a7.2,7.2,0,0,1,1.09-2.66l1-1.37a5.08,5.08,0,0,1,2.93-2.24l.16,0a8.86,8.86,0,0,1,6.55,1.52m-28.45,14c0-.91,0-1.82,0-2.72-.17-3.74-.25-7.48-.52-11.21-.13-1.73.41-2.15,2-2.15s2.4.31,2.2,2.18c-.23,2.1-.14,4.23-.32,6.33-.09,1,.27,1.08,1.06,1.12,3.82.22,3.84.24,3.71-3.62-.06-1.76-.19-3.51-.34-5.25-.08-.85.18-1.28,1-1.25.12,0,.23,0,.35,0,4.1-.33,4.4-.36,4,2.61a38.06,38.06,0,0,0-.33,4l-.15,4.53c0,1,0,2,0,3,.15,3.7,0,7.42.28,11.13.22,3.31.6,3.31-2.73,3.31-.88,0-1.77-.05-2.66,0s-1.21-.34-1.12-1.27c.23-2.65.39-5.31.61-8,.07-.88-.14-1.34-1.14-1.29-.83,0-1.3.1-1.25,1.17.1,2.18.09,4.35.05,6.53,0,3.38-.24,3.55-3.57,3.49a1.82,1.82,0,0,0-.33,0c-1.13.1-1.47-.43-1.37-1.68.24-3,.32-6,.48-9.2ZM85.9,18.05a6.92,6.92,0,0,1-2.36,1.74.37.37,0,0,1-.47-.33c0-.25,0-.48,0-.7-.28-2.5-1.35-4.43-2.34-4.19-1.16.28-1.76,2.55-1.3,4.87.69,3.43,2.8,6.08,4.74,8.79,2.59,3.64,4.31,7.44,2.91,12.11a2.79,2.79,0,0,1-.7,1.18l-.49.5a5.74,5.74,0,0,1-1.79,1.24c-4.8,2.08-9.65,1.36-14.49,0a1.51,1.51,0,0,1-1.1-1.35l-.06-.79a1.3,1.3,0,0,1,.3-.92c.78-.94,1.74-.55,2.83-.14,3.33,1.26,6.65,1.53,9.8-.62a2.19,2.19,0,0,0,.75-3.36l-3.21-5a22.23,22.23,0,0,1-3.56-10.68c-.25-3.63.85-6.61,4.13-8.55l.39-.19a3.26,3.26,0,0,1,3.06.3c1.79,1.2,3,2.19,4.83,3.2a.34.34,0,0,1,.1.52Zm9.74,8.65c-1.23-.11-1.47.51-1.11,2.07a10.64,10.64,0,0,1,.16,3.69c-.18,1.41.23,1.6,1.08,1.63a24.3,24.3,0,0,0,4.89-.43c1.09-.18,1.76.27,1.61,1.45s1,2.58-1.07,3c-3.11.62-6.24.07-9.35.31-1.38.1-1.68-.47-1.66-1.78.09-5.49,0-11,.17-16.48l-.08-5.21c0-1.39,0-2.78,0-4.17,0-.87.19-1.32,1.17-1.35,3-.12,5.89-.4,8.84-.48,1,0,2-.34,3.1-.42,1.31-.09,1.31.45,1.35,1.4.1,3.19.12,3.14-3,4a24.7,24.7,0,0,1-5.41.85c-1.15.05-1.82.46-1.56,1.84.17.89.19,1.8.28,2.7a1.22,1.22,0,0,0,1.27,1.22,12.62,12.62,0,0,0,2.13,0c1.15-.13,1.83.16,1.73,1.29,0,.32,0,.65,0,1l.11,2.86a1.13,1.13,0,0,1-1,1.18h-.1l-1.81,0c-.53,0-1.07-.05-1.6-.09M49.42,33.08A20.44,20.44,0,0,0,49.1,15c-.12-.23-.21-.43-.29-.61a.81.81,0,0,0-1.48,0l-.46.94a19.13,19.13,0,0,0-.32,15.91l1.28,2.27a.8.8,0,0,0,1.42,0Z" transform="translate(0 0)"/><rect class="cls-2" width="127.85" height="128"/><circle class="cls-1" cx="54.52" cy="68.57" r="8.81"/></svg>